# xmcd
#
# Track frame offsets:
#	150
#	12562
#	31460
#	46192
#	59586
#	72374
#	88541
#	100396
#	115295
#	135948
#	155486
#	169716
#	184727
#	201911
#	215292
#	223746
#
# Disc length: 3174 seconds
#
# Revision: 1
# Processed by: cddbd v1.5.2PL0 Copyright (c) Steve Scherf et al.
# Submitted via: Rip'N'TagIt 1.5.0.0 
#
DISCID=e70c6410
DTITLE=The Jalapenos - Loquisimo!
DYEAR=2004
DGENRE=Rhythm and Blues
TTITLE0=Jump Start
TTITLE1=Good Lookin' Trouble
TTITLE2=Three Days On The Beer
TTITLE3=Movin' And Shakin'
TTITLE4=Bad Tattoo
TTITLE5=I Wear Leather
TTITLE6=A Bit Of Strange
TTITLE7=Wandering Eye
TTITLE8=Accused
TTITLE9=Out To Hunch
TTITLE10=Lucifer Syd
TTITLE11=Mean Motorcycle
TTITLE12=Keshi Head
TTITLE13=Keeping Music Live (Is Killing Me)
TTITLE14=I Caught You Lookin'
TTITLE15=Lanterne Rouge
EXTD=
EXTT0=
EXTT1=
EXTT2=
EXTT3=
EXTT4=
EXTT5=
EXTT6=
EXTT7=
EXTT8=
EXTT9=
EXTT10=
EXTT11=
EXTT12=
EXTT13=
EXTT14=
EXTT15=
PLAYORDER=
